<?xml version="1.0" encoding="UTF-8" standalone="no"?>
<svg
   width="1920"
   height="1080"
   viewBox="0 0 507.99999 285.75001"
   version="1.1"
   id="svg8"
   inkscape:version="1.1 (c68e22c387, 2021-05-23)"
   sodipodi:docname="6 dark.svg"
   inkscape:export-filename="/home/vlad/Desktop/Wallpaper/background6.png"
   inkscape:export-xdpi="96"
   inkscape:export-ydpi="96"
   xmlns:inkscape="http://www.inkscape.org/namespaces/inkscape"
   xmlns:sodipodi="http://sodipodi.sourceforge.net/DTD/sodipodi-0.dtd"
   xmlns="http://www.w3.org/2000/svg"
   xmlns:svg="http://www.w3.org/2000/svg"
   xmlns:rdf="http://www.w3.org/1999/02/22-rdf-syntax-ns#"
   xmlns:cc="http://creativecommons.org/ns#"
   xmlns:dc="http://purl.org/dc/elements/1.1/">
  <defs
     id="defs2" />
  <sodipodi:namedview
     id="base"
     pagecolor="#ffffff"
     bordercolor="#666666"
     borderopacity="1.0"
     inkscape:pageopacity="0.0"
     inkscape:pageshadow="2"
     inkscape:zoom="0.22627417"
     inkscape:cx="762.3495"
     inkscape:cy="298.31067"
     inkscape:document-units="mm"
     inkscape:current-layer="layer1"
     inkscape:document-rotation="0"
     showgrid="false"
     units="px"
     inkscape:window-width="1920"
     inkscape:window-height="1052"
     inkscape:window-x="0"
     inkscape:window-y="0"
     inkscape:window-maximized="1"
     inkscape:pagecheckerboard="0" />
  <metadata
     id="metadata5">
    <rdf:RDF>
      <cc:Work
         rdf:about="">
        <dc:format>image/svg+xml</dc:format>
        <dc:type
           rdf:resource="http://purl.org/dc/dcmitype/StillImage" />
      </cc:Work>
    </rdf:RDF>
  </metadata>
  <g
     inkscape:groupmode="layer"
     id="layer2"
     inkscape:label="Layer 2">
    <path
       id="rect855-75"
       style="fill:#827717;fill-opacity:1;stroke:none;stroke-width:0.264583"
       d="m 362.41748,149.36695 48.10053,-27.38187 v 55.25901 l -48.10053,27.38189 z"
       sodipodi:nodetypes="ccccc" />
  </g>
  <g
     inkscape:label="Layer 1"
     inkscape:groupmode="layer"
     id="layer1">
    <path
       id="rect835"
       style="fill:#cddc39;fill-opacity:1;stroke:none;stroke-width:0.199627"
       d="M 0.84993405,61.926934 48.95046,34.54506 97.050988,61.926934 48.95046,89.308804 Z" />
    <path
       id="rect855"
       style="fill:#827717;fill-opacity:1;stroke:none;stroke-width:0.264583"
       d="m 48.95046,89.308804 48.100528,-27.38187 0,55.259006 -48.100528,27.38189 z"
       sodipodi:nodetypes="ccccc" />
    <path
       id="rect855-6"
       style="fill:#afb42b;fill-opacity:1;stroke:none;stroke-width:0.264583"
       d="M 48.95046,89.308804 0.849932,61.926934 v 55.259016 l 48.100528,27.38189 z"
       sodipodi:nodetypes="ccccc" />
    <path
       id="rect835-7"
       style="fill:#cddc39;fill-opacity:1;stroke:none;stroke-width:0.199627"
       d="M 97.050988,61.926934 145.15151,34.545059 193.25204,61.926934 145.15151,89.308803 Z" />
    <path
       id="rect855-5"
       style="fill:#827717;fill-opacity:1;stroke:none;stroke-width:0.264583"
       d="m 145.15151,89.308803 48.10053,-27.381869 v 55.259006 l -48.10053,27.3819 z"
       sodipodi:nodetypes="ccccc" />
    <path
       id="rect855-6-3"
       style="fill:#afb42b;fill-opacity:1;stroke:none;stroke-width:0.264583"
       d="M 145.15151,89.308803 97.050986,61.926934 v 55.259016 l 48.100524,27.38189 z"
       sodipodi:nodetypes="ccccc" />
    <path
       id="rect835-5"
       style="fill:#cddc39;fill-opacity:1;stroke:none;stroke-width:0.199627"
       d="m 48.950453,144.56784 48.100527,-27.38188 48.10053,27.38188 -48.10053,27.38187 z" />
    <path
       id="rect855-6-9"
       style="fill:#afb42b;fill-opacity:1;stroke:none;stroke-width:0.264583"
       d="M 97.05098,171.94971 48.950451,144.56784 v 55.25901 l 48.100529,27.38189 z"
       sodipodi:nodetypes="ccccc" />
    <path
       id="rect855-2"
       style="fill:#827717;fill-opacity:1;stroke:none;stroke-width:0.264583"
       d="m 193.25206,171.94969 48.10053,-27.38187 v 55.259 l -48.10053,27.3819 z"
       sodipodi:nodetypes="ccccc" />
    <path
       id="rect855-6-7"
       style="fill:#afb42b;fill-opacity:1;stroke:none;stroke-width:0.264583"
       d="m 193.25204,171.94969 -48.10053,-27.38187 v 55.25901 l 48.10053,27.38189 z"
       sodipodi:nodetypes="ccccc" />
    <path
       id="rect835-0"
       style="fill:#cddc39;fill-opacity:1;stroke:none;stroke-width:0.199627"
       d="M 193.25205,61.92692 241.35257,34.54505 289.4531,61.92692 241.35257,89.30879 Z" />
    <path
       id="rect855-9"
       style="fill:#827717;fill-opacity:1;stroke:none;stroke-width:0.264583"
       d="M 241.35257,89.30879 289.4531,61.92692 v 55.25901 l -48.10053,27.38189 z"
       sodipodi:nodetypes="ccccc" />
    <path
       id="rect855-6-36"
       style="fill:#afb42b;fill-opacity:1;stroke:none;stroke-width:0.264583"
       d="M 241.35257,89.30879 193.25204,61.92692 v 55.25902 l 48.10053,27.38188 z"
       sodipodi:nodetypes="ccccc" />
    <path
       id="rect835-06"
       style="fill:#cddc39;fill-opacity:1;stroke:none;stroke-width:0.199627"
       d="m 145.15151,-20.713956 48.10053,-27.381875 48.10053,27.381875 -48.10053,27.381869 z" />
    <path
       id="rect855-26"
       style="fill:#827717;fill-opacity:1;stroke:none;stroke-width:0.264583"
       d="m 193.25204,6.667913 48.10053,-27.381869 v 55.259005 l -48.10053,27.3819 z"
       sodipodi:nodetypes="ccccc" />
    <path
       id="rect855-6-1"
       style="fill:#afb42b;fill-opacity:1;stroke:none;stroke-width:0.264583"
       d="m 193.25204,6.667913 -48.10053,-27.381869 v 55.259015 l 48.10053,27.38189 z"
       sodipodi:nodetypes="ccccc" />
    <path
       id="rect835-8"
       style="fill:#cddc39;fill-opacity:1;stroke:none;stroke-width:0.199627"
       d="M 48.95047,-20.713957 97.05099,-48.095832 145.15152,-20.713957 97.05099,6.6679117 Z" />
    <path
       id="rect855-7"
       style="fill:#827717;fill-opacity:1;stroke:none;stroke-width:0.264583"
       d="M 97.05099,6.6679117 145.15152,-20.713957 V 34.54505 L 97.05099,61.926945 Z"
       sodipodi:nodetypes="ccccc" />
    <path
       id="rect855-6-92"
       style="fill:#afb42b;fill-opacity:1;stroke:none;stroke-width:0.264583"
       d="M 97.05099,6.6679117 48.95046,-20.713957 V 34.54506 l 48.10053,27.381885 z"
       sodipodi:nodetypes="ccccc" />
    <path
       id="rect835-02"
       style="fill:#cddc39;fill-opacity:1;stroke:none;stroke-width:0.199627"
       d="M -47.250592,-20.713968 0.84993405,-48.095843 48.950459,-20.713968 0.84993405,6.667901 Z" />
    <path
       id="rect855-3"
       style="fill:#827717;fill-opacity:1;stroke:none;stroke-width:0.264583"
       d="M 0.84993505,6.667922 48.95046,-20.713947 V 34.54506 L 0.84993505,61.926955 Z"
       sodipodi:nodetypes="ccccc" />
    <path
       id="rect855-6-75"
       style="fill:#afb42b;fill-opacity:1;stroke:none;stroke-width:0.264583"
       d="M 0.84993405,6.667901 -47.250594,-20.713968 V 34.545049 L 0.84993405,61.926934 Z"
       sodipodi:nodetypes="ccccc" />
    <path
       id="rect835-9"
       style="fill:#cddc39;fill-opacity:1;stroke:none;stroke-width:0.199627"
       d="M -47.250605,144.56784 0.8499208,117.18597 48.950451,144.56784 0.8499208,171.94971 Z" />
    <path
       id="rect855-22"
       style="fill:#827717;fill-opacity:1;stroke:none;stroke-width:0.264583"
       d="M 0.8499208,171.94971 48.950451,144.56784 v 55.25901 L 0.8499208,227.20874 Z"
       sodipodi:nodetypes="ccccc" />
    <path
       id="rect855-6-8"
       style="fill:#afb42b;fill-opacity:1;stroke:none;stroke-width:0.264583"
       d="M 0.8499208,171.94971 -47.250607,144.56784 v 55.25902 l 48.1005278,27.38188 z"
       sodipodi:nodetypes="ccccc" />
    <path
       id="rect835-97"
       style="fill:#cddc39;fill-opacity:1;stroke:none;stroke-width:0.199627"
       d="m 0.849931,227.20873 48.10052,-27.38188 48.10053,27.38188 -48.10053,27.38187 z" />
    <path
       id="rect855-36"
       style="fill:#827717;fill-opacity:1;stroke:none;stroke-width:0.264583"
       d="m 48.950451,254.5906 48.10053,-27.38187 v 55.259 l -48.10053,27.3819 z"
       sodipodi:nodetypes="ccccc" />
    <path
       id="rect855-6-12"
       style="fill:#afb42b;fill-opacity:1;stroke:none;stroke-width:0.264583"
       d="M 48.950451,254.5906 0.849931,227.20873 v 55.25901 l 48.10052,27.38189 z"
       sodipodi:nodetypes="ccccc" />
    <path
       id="rect835-93"
       style="fill:#cddc39;fill-opacity:1;stroke:none;stroke-width:0.199627"
       d="m 97.050984,227.20872 48.100526,-27.38187 48.10053,27.38187 -48.10053,27.38187 z" />
    <path
       id="rect855-1"
       style="fill:#827717;fill-opacity:1;stroke:none;stroke-width:0.264583"
       d="m 145.15151,254.59059 48.10053,-27.38187 v 55.25901 l -48.10053,27.38189 z"
       sodipodi:nodetypes="ccccc" />
    <path
       id="rect855-6-94"
       style="fill:#afb42b;fill-opacity:1;stroke:none;stroke-width:0.264583"
       d="M 145.15151,254.59059 97.050982,227.20872 v 55.25902 l 48.100528,27.38188 z"
       sodipodi:nodetypes="ccccc" />
    <path
       id="rect835-78"
       style="fill:#cddc39;fill-opacity:1;stroke:none;stroke-width:0.199627"
       d="m -95.351121,61.926934 48.100523,-27.38188 48.10053,27.38188 -48.10053,27.38187 z" />
    <path
       id="rect855-4"
       style="fill:#827717;fill-opacity:1;stroke:none;stroke-width:0.264583"
       d="m -47.250598,89.308804 48.10053,-27.38187 v 55.259006 l -48.10053,27.38189 z"
       sodipodi:nodetypes="ccccc" />
    <path
       id="rect855-6-5"
       style="fill:#afb42b;fill-opacity:1;stroke:none;stroke-width:0.264583"
       d="m -47.250598,89.308804 -48.100525,-27.38187 v 55.259016 l 48.100525,27.38188 z"
       sodipodi:nodetypes="ccccc" />
    <path
       id="rect835-03"
       style="fill:#cddc39;fill-opacity:1;stroke:none;stroke-width:0.199627"
       d="m -95.351124,227.20873 48.100525,-27.38187 48.10053,27.38187 -48.10053,27.38187 z"
       inkscape:transform-center-x="7.2674998"
       inkscape:transform-center-y="-206.4158" />
    <path
       id="rect855-61"
       style="fill:#827717;fill-opacity:1;stroke:none;stroke-width:0.264583"
       d="m -47.250599,254.5906 48.10053,-27.38187 v 55.25901 l -48.10053,27.38189 z"
       sodipodi:nodetypes="ccccc"
       inkscape:transform-center-x="-16.782764"
       inkscape:transform-center-y="-165.09535" />
    <path
       id="rect855-6-0"
       style="fill:#afb42b;fill-opacity:1;stroke:none;stroke-width:0.264583"
       d="m -47.250599,254.5906 -48.100528,-27.38187 v 55.25902 l 48.100528,27.38188 z"
       sodipodi:nodetypes="ccccc"
       inkscape:transform-center-x="31.317767"
       inkscape:transform-center-y="-165.09535" />
    <path
       id="rect835-6"
       style="fill:#cddc39;fill-opacity:1;stroke:none;stroke-width:0.199627"
       d="M -47.250599,309.84963 0.849926,282.46775 48.950456,309.84963 0.849926,337.2315 Z"
       inkscape:transform-center-x="-73.73251"
       inkscape:transform-center-y="-107.10735" />
    <path
       id="rect855-32"
       style="fill:#827717;fill-opacity:1;stroke:none;stroke-width:0.264583"
       d="m 0.849926,337.2315 48.10053,-27.38187 v 55.25901 l -48.10053,27.38189 z"
       sodipodi:nodetypes="ccccc"
       inkscape:transform-center-x="-97.782774"
       inkscape:transform-center-y="-65.786898" />
    <path
       id="rect855-6-06"
       style="fill:#afb42b;fill-opacity:1;stroke:none;stroke-width:0.264583"
       d="m 0.849926,337.2315 -48.100527,-27.38187 v 55.25902 l 48.100527,27.38188 z"
       sodipodi:nodetypes="ccccc"
       inkscape:transform-center-x="-49.682244"
       inkscape:transform-center-y="-65.786898" />
    <path
       id="rect835-15"
       style="fill:#cddc39;fill-opacity:1;stroke:none;stroke-width:0.199627"
       d="M 48.950456,309.8496 97.050981,282.46773 145.15151,309.8496 97.050981,337.23147 Z"
       inkscape:transform-center-x="76.633569"
       inkscape:transform-center-y="13.535473" />
    <path
       id="rect855-54"
       style="fill:#827717;fill-opacity:1;stroke:none;stroke-width:0.264583"
       d="M 97.050981,337.23147 145.15151,309.8496 v 55.25901 l -48.100529,27.3819 z"
       sodipodi:nodetypes="ccccc"
       inkscape:transform-center-x="52.583306"
       inkscape:transform-center-y="54.85593" />
    <path
       id="rect855-6-76"
       style="fill:#afb42b;fill-opacity:1;stroke:none;stroke-width:0.264583"
       d="M 97.050981,337.23147 48.950454,309.8496 v 55.25902 l 48.100527,27.38189 z"
       sodipodi:nodetypes="ccccc"
       inkscape:transform-center-x="100.68384"
       inkscape:transform-center-y="54.85593" />
    <path
       id="rect835-56"
       style="fill:#cddc39;fill-opacity:1;stroke:none;stroke-width:0.199627"
       d="M 241.35257,-20.71398 289.4531,-48.09585 337.55363,-20.71398 289.4531,6.66789 Z"
       inkscape:transform-center-x="19.742938"
       inkscape:transform-center-y="271.27957" />
    <path
       id="rect855-93"
       style="fill:#827717;fill-opacity:1;stroke:none;stroke-width:0.264583"
       d="m 289.4531,6.66789 48.10053,-27.38187 V 34.54503 L 289.4531,61.92692 Z"
       sodipodi:nodetypes="ccccc"
       inkscape:transform-center-x="-4.3073275"
       inkscape:transform-center-y="312.60003" />
    <path
       id="rect855-6-74"
       style="fill:#afb42b;fill-opacity:1;stroke:none;stroke-width:0.264583"
       d="M 289.4531,6.66789 241.35257,-20.71398 V 34.54504 L 289.4531,61.92692 Z"
       sodipodi:nodetypes="ccccc"
       inkscape:transform-center-x="43.793204"
       inkscape:transform-center-y="312.60003" />
    <path
       id="rect835-52"
       style="fill:#cddc39;fill-opacity:1;stroke:none;stroke-width:0.199627"
       d="m 241.35258,144.56781 48.10052,-27.38188 48.10053,27.38188 -48.10053,27.38186 z"
       inkscape:transform-center-x="71.963987"
       inkscape:transform-center-y="-195.32087" />
    <path
       id="rect855-547"
       style="fill:#827717;fill-opacity:1;stroke:none;stroke-width:0.264583"
       d="m 289.4531,171.94967 48.10053,-27.38186 v 55.259 l -48.10053,27.3819 z"
       sodipodi:nodetypes="ccccc"
       inkscape:transform-center-x="47.913726"
       inkscape:transform-center-y="-154.00042" />
    <path
       id="rect855-6-4"
       style="fill:#afb42b;fill-opacity:1;stroke:none;stroke-width:0.264583"
       d="m 289.4531,171.94967 -48.10052,-27.38186 v 55.25901 l 48.10052,27.38189 z"
       sodipodi:nodetypes="ccccc"
       inkscape:transform-center-x="96.014253"
       inkscape:transform-center-y="-154.00042" />
    <path
       id="rect835-4"
       style="fill:#cddc39;fill-opacity:1;stroke:none;stroke-width:0.199627"
       d="m 193.25205,227.20869 48.10053,-27.38187 48.10053,27.38187 -48.10053,27.38187 z"
       inkscape:transform-center-x="-62.025977"
       inkscape:transform-center-y="-171.746" />
    <path
       id="rect855-30"
       style="fill:#827717;fill-opacity:1;stroke:none;stroke-width:0.264583"
       d="m 241.35257,254.59059 48.10053,-27.38187 v 55.25901 l -48.10053,27.3819 z"
       sodipodi:nodetypes="ccccc"
       inkscape:transform-center-x="-86.076243"
       inkscape:transform-center-y="-130.42554" />
    <path
       id="rect855-6-78"
       style="fill:#afb42b;fill-opacity:1;stroke:none;stroke-width:0.264583"
       d="m 241.35257,254.59059 -48.10053,-27.38187 v 55.25902 l 48.10053,27.38189 z"
       sodipodi:nodetypes="ccccc"
       inkscape:transform-center-x="-37.975712"
       inkscape:transform-center-y="-130.42554" />
    <path
       id="rect835-68"
       style="fill:#cddc39;fill-opacity:1;stroke:none;stroke-width:0.199627"
       d="m 145.15151,309.84961 48.10053,-27.38188 48.10053,27.38188 -48.10053,27.38187 z" />
    <path
       id="rect855-8"
       style="fill:#827717;fill-opacity:1;stroke:none;stroke-width:0.264583"
       d="m 193.25204,337.23148 48.10053,-27.38187 v 55.25901 l -48.10053,27.38189 z"
       sodipodi:nodetypes="ccccc" />
    <path
       id="rect855-6-43"
       style="fill:#afb42b;fill-opacity:1;stroke:none;stroke-width:0.264583"
       d="m 193.25204,337.23148 -48.10053,-27.38187 v 55.25902 l 48.10053,27.38188 z"
       sodipodi:nodetypes="ccccc" />
    <path
       id="rect835-14"
       style="fill:#cddc39;fill-opacity:1;stroke:none;stroke-width:0.199627"
       d="m 241.35258,309.8496 48.10052,-27.38187 48.10053,27.38187 -48.10053,27.38187 z"
       inkscape:transform-center-x="90.039264"
       inkscape:transform-center-y="-53.714071" />
    <path
       id="rect855-92"
       style="fill:#827717;fill-opacity:1;stroke:none;stroke-width:0.264583"
       d="m 289.4531,337.23147 48.10053,-27.38187 v 55.25901 l -48.10053,27.3819 z"
       sodipodi:nodetypes="ccccc"
       inkscape:transform-center-x="65.989003"
       inkscape:transform-center-y="-12.393614" />
    <path
       id="rect855-6-068"
       style="fill:#afb42b;fill-opacity:1;stroke:none;stroke-width:0.264583"
       d="M 289.4531,337.23147 241.35257,309.8496 v 55.25902 l 48.10053,27.38189 z"
       sodipodi:nodetypes="ccccc"
       inkscape:transform-center-x="114.08953"
       inkscape:transform-center-y="-12.393614" />
    <path
       id="rect835-92"
       style="fill:#cddc39;fill-opacity:1;stroke:none;stroke-width:0.199627"
       d="m 337.55363,309.8496 48.10053,-27.38188 48.10053,27.38188 -48.10053,27.38186 z" />
    <path
       id="rect855-66"
       style="fill:#827717;fill-opacity:1;stroke:none;stroke-width:0.264583"
       d="m 385.65416,337.23146 48.10053,-27.38186 v 55.259 l -48.10053,27.3819 z"
       sodipodi:nodetypes="ccccc" />
    <path
       id="rect855-6-49"
       style="fill:#afb42b;fill-opacity:1;stroke:none;stroke-width:0.264583"
       d="M 385.65416,337.23146 337.55363,309.8496 v 55.25901 l 48.10053,27.38189 z"
       sodipodi:nodetypes="ccccc" />
    <path
       id="rect835-50"
       style="fill:#cddc39;fill-opacity:1;stroke:none;stroke-width:0.199627"
       d="m 289.45311,227.20871 48.10052,-27.38187 48.10053,27.38187 -48.10053,27.38187 z"
       inkscape:transform-center-x="-17.856718"
       inkscape:transform-center-y="45.14046" />
    <path
       id="rect855-48"
       style="fill:#827717;fill-opacity:1;stroke:none;stroke-width:0.264583"
       d="m 337.55363,254.59058 48.10053,-27.38187 v 55.25901 l -48.10053,27.38189 z"
       sodipodi:nodetypes="ccccc"
       inkscape:transform-center-x="-41.906978"
       inkscape:transform-center-y="86.460911" />
    <path
       id="rect855-6-71"
       style="fill:#afb42b;fill-opacity:1;stroke:none;stroke-width:0.264583"
       d="M 337.55363,254.59058 289.4531,227.20871 v 55.25902 l 48.10053,27.38188 z"
       sodipodi:nodetypes="ccccc"
       inkscape:transform-center-x="6.1935533"
       inkscape:transform-center-y="86.460911" />
    <path
       id="rect835-72"
       style="fill:#cddc39;fill-opacity:1;stroke:none;stroke-width:0.199627"
       d="m 385.65416,227.20871 48.10053,-27.38188 48.10053,27.38188 -48.10053,27.38187 z"
       inkscape:transform-center-x="130.29217"
       inkscape:transform-center-y="-17.382178" />
    <path
       id="rect855-72"
       style="fill:#827717;fill-opacity:1;stroke:none;stroke-width:0.264583"
       d="m 433.75469,254.59058 48.10053,-27.38187 v 55.259 l -48.10053,27.3819 z"
       sodipodi:nodetypes="ccccc"
       inkscape:transform-center-x="106.2419"
       inkscape:transform-center-y="23.938278" />
    <path
       id="rect855-6-2"
       style="fill:#afb42b;fill-opacity:1;stroke:none;stroke-width:0.264583"
       d="m 433.75469,254.59058 -48.10053,-27.38187 v 55.25901 l 48.10053,27.38189 z"
       sodipodi:nodetypes="ccccc"
       inkscape:transform-center-x="154.34244"
       inkscape:transform-center-y="23.938278" />
    <path
       id="rect835-61"
       style="fill:#cddc39;fill-opacity:1;stroke:none;stroke-width:0.199627"
       d="M 289.4531,61.9269 337.55363,34.54503 385.65416,61.9269 337.55363,89.30877 Z" />
    <path
       id="rect855-6-6"
       style="fill:#afb42b;fill-opacity:1;stroke:none;stroke-width:0.264583"
       d="M 337.55363,89.30878 289.4531,61.92691 v 55.25902 l 48.10053,27.38188 z"
       sodipodi:nodetypes="ccccc" />
    <path
       id="rect835-159"
       style="fill:#cddc39;fill-opacity:1;stroke:none;stroke-width:0.199627"
       d="m 337.55363,144.56782 48.10053,-27.38187 48.10053,27.38187 -48.10053,27.38187 z"
       inkscape:transform-center-x="40.354894"
       inkscape:transform-center-y="-138.09519" />
    <path
       id="rect855-49"
       style="fill:#827717;fill-opacity:1;stroke:none;stroke-width:0.264583"
       d="m 385.65416,171.94969 48.10053,-27.38187 v 55.25901 l -48.10053,27.38189 z"
       sodipodi:nodetypes="ccccc"
       inkscape:transform-center-x="16.304628"
       inkscape:transform-center-y="-96.774735" />
    <path
       id="rect855-6-09"
       style="fill:#afb42b;fill-opacity:1;stroke:none;stroke-width:0.264583"
       d="m 385.65416,171.94969 -48.10053,-27.38187 v 55.25902 l 48.10053,27.38188 z"
       sodipodi:nodetypes="ccccc"
       inkscape:transform-center-x="64.40516"
       inkscape:transform-center-y="-96.774735" />
    <path
       id="rect835-17"
       style="fill:#cddc39;fill-opacity:1;stroke:none;stroke-width:0.199627"
       d="m 433.7547,309.84958 48.10052,-27.38187 48.10053,27.38187 -48.10053,27.38187 z"
       inkscape:transform-center-x="122.41486"
       inkscape:transform-center-y="-175.61707" />
    <path
       id="rect855-71"
       style="fill:#827717;fill-opacity:1;stroke:none;stroke-width:0.264583"
       d="m 481.85522,337.23145 48.10053,-27.38187 v 55.25901 l -48.10053,27.38189 z"
       sodipodi:nodetypes="ccccc"
       inkscape:transform-center-x="98.364603"
       inkscape:transform-center-y="-134.29661" />
    <path
       id="rect855-6-15"
       style="fill:#afb42b;fill-opacity:1;stroke:none;stroke-width:0.264583"
       d="m 481.85522,337.23145 -48.10053,-27.38187 v 55.25902 l 48.10053,27.38188 z"
       sodipodi:nodetypes="ccccc"
       inkscape:transform-center-x="146.46513"
       inkscape:transform-center-y="-134.29661" />
    <path
       id="rect835-977"
       style="fill:#cddc39;fill-opacity:1;stroke:none;stroke-width:0.199627"
       d="m 481.85522,227.20871 48.10052,-27.38187 48.10053,27.38187 -48.10053,27.38187 z" />
    <path
       id="rect855-67"
       style="fill:#827717;fill-opacity:1;stroke:none;stroke-width:0.264583"
       d="m 529.95574,254.59058 48.10053,-27.38187 v 55.25901 l -48.10053,27.3819 z"
       sodipodi:nodetypes="ccccc" />
    <path
       id="rect855-6-365"
       style="fill:#afb42b;fill-opacity:1;stroke:none;stroke-width:0.264583"
       d="m 529.95574,254.59058 -48.10052,-27.38187 v 55.25902 l 48.10052,27.38189 z"
       sodipodi:nodetypes="ccccc" />
    <path
       id="rect835-63"
       style="fill:#cddc39;fill-opacity:1;stroke:none;stroke-width:0.199627"
       d="m 433.75469,144.56782 48.10052,-27.38188 48.10053,27.38188 -48.10053,27.38187 z" />
    <path
       id="rect855-94"
       style="fill:#827717;fill-opacity:1;stroke:none;stroke-width:0.264583"
       d="m 481.85521,171.94969 48.10053,-27.38187 v 55.259 l -48.10053,27.3819 z"
       sodipodi:nodetypes="ccccc" />
    <path
       id="rect855-6-81"
       style="fill:#afb42b;fill-opacity:1;stroke:none;stroke-width:0.264583"
       d="m 481.85521,171.94969 -48.10053,-27.38187 v 55.25901 l 48.10053,27.38189 z"
       sodipodi:nodetypes="ccccc" />
    <path
       id="rect835-2"
       style="fill:#cddc39;fill-opacity:1;stroke:none;stroke-width:0.199627"
       d="M 385.65415,61.92693 433.75468,34.54505 481.85521,61.92693 433.75468,89.3088 Z"
       inkscape:transform-center-x="-28.522606"
       inkscape:transform-center-y="47.256904" />
    <path
       id="rect855-939"
       style="fill:#827717;fill-opacity:1;stroke:none;stroke-width:0.264583"
       d="m 433.75468,89.3088 48.10053,-27.38187 v 55.25901 l -48.10053,27.38189 z"
       sodipodi:nodetypes="ccccc"
       inkscape:transform-center-x="-52.572871"
       inkscape:transform-center-y="88.57736" />
    <path
       id="rect855-6-08"
       style="fill:#afb42b;fill-opacity:1;stroke:none;stroke-width:0.264583"
       d="M 433.75468,89.3088 385.65415,61.92693 v 55.25902 l 48.10053,27.38188 z"
       sodipodi:nodetypes="ccccc"
       inkscape:transform-center-x="-4.4723398"
       inkscape:transform-center-y="88.57736" />
    <path
       id="rect835-85"
       style="fill:#cddc39;fill-opacity:1;stroke:none;stroke-width:0.199627"
       d="M 481.85522,61.926921 529.95574,34.545046 578.05627,61.926921 529.95574,89.30879 Z"
       inkscape:transform-center-x="89.734572"
       inkscape:transform-center-y="-95.689135" />
    <path
       id="rect855-09"
       style="fill:#827717;fill-opacity:1;stroke:none;stroke-width:0.264583"
       d="m 529.95574,89.30879 48.10053,-27.381869 v 55.259009 l -48.10053,27.38189 z"
       sodipodi:nodetypes="ccccc"
       inkscape:transform-center-x="65.684312"
       inkscape:transform-center-y="-54.368681" />
    <path
       id="rect855-6-63"
       style="fill:#afb42b;fill-opacity:1;stroke:none;stroke-width:0.264583"
       d="M 529.95574,89.30879 481.85521,61.926921 v 55.259019 l 48.10053,27.38188 z"
       sodipodi:nodetypes="ccccc"
       inkscape:transform-center-x="113.78484"
       inkscape:transform-center-y="-54.368681" />
    <path
       id="rect835-856"
       style="fill:#cddc39;fill-opacity:1;stroke:none;stroke-width:0.199627"
       d="m 433.75468,-20.713958 48.10053,-27.381875 48.10053,27.381875 -48.10053,27.381874 z"
       inkscape:transform-center-x="-78.750421"
       inkscape:transform-center-y="79.451415" />
    <path
       id="rect855-11"
       style="fill:#827717;fill-opacity:1;stroke:none;stroke-width:0.264583"
       d="m 481.85521,6.667916 48.10053,-27.381874 v 55.259004 l -48.10053,27.3819 z"
       sodipodi:nodetypes="ccccc"
       inkscape:transform-center-x="-102.80069"
       inkscape:transform-center-y="120.77187" />
    <path
       id="rect855-6-59"
       style="fill:#afb42b;fill-opacity:1;stroke:none;stroke-width:0.264583"
       d="m 481.85521,6.667916 -48.10053,-27.381874 v 55.259014 l 48.10053,27.38189 z"
       sodipodi:nodetypes="ccccc"
       inkscape:transform-center-x="-54.700155"
       inkscape:transform-center-y="120.77187" />
    <path
       id="rect835-04"
       style="fill:#cddc39;fill-opacity:1;stroke:none;stroke-width:0.199627"
       d="m 337.55362,-20.713958 48.10053,-27.38188 48.10053,27.38188 -48.10053,27.38187 z" />
    <path
       id="rect855-44"
       style="fill:#827717;fill-opacity:1;stroke:none;stroke-width:0.264583"
       d="m 385.65415,6.667912 48.10053,-27.38187 v 55.25901 l -48.10053,27.38189 z"
       sodipodi:nodetypes="ccccc" />
    <path
       id="rect855-6-47"
       style="fill:#afb42b;fill-opacity:1;stroke:none;stroke-width:0.264583"
       d="m 385.65415,6.667912 -48.10053,-27.38187 v 55.25902 l 48.10053,27.38188 z"
       sodipodi:nodetypes="ccccc" />
    <path
       id="rect855-0"
       style="fill:#827717;fill-opacity:1;stroke:none;stroke-width:0.264583"
       d="m 337.55363,89.30878 48.10053,-27.38187 v 55.25901 l -48.10053,27.38189 z"
       sodipodi:nodetypes="ccccc" />
    <path
       id="rect835-1"
       style="fill:#cddc39;fill-opacity:1;stroke:none;stroke-width:0.199627"
       d="m 145.15152,144.56782 48.10052,-27.38188 48.10053,27.38188 -48.10053,27.38187 z" />
    <path
       id="rect855-62"
       style="fill:#827717;fill-opacity:1;stroke:none;stroke-width:0.264583"
       d="m 97.05098,171.94971 48.10053,-27.38187 v 55.259 l -48.10053,27.3819 z"
       sodipodi:nodetypes="ccccc" />
  </g>
</svg>
